<?xml version="1.0" encoding="UTF-8"?>
<svg version="1.1" xmlns="http://www.w3.org/2000/svg" width="431" height="204">
<path d="M0 0 C142.23 0 284.46 0 431 0 C431 67.32 431 134.64 431 204 C288.77 204 146.54 204 0 204 C0 136.68 0 69.36 0 0 Z " fill="#FEFEFE" transform="translate(0,0)"/>
<path d="M0 0 C1.02030853 0.00037972 2.04061705 0.00075944 3.09184402 0.00115067 C4.85046197 -0.00183591 4.85046197 -0.00183591 6.64460754 -0.00488281 C7.94905333 -0.00196997 9.25349912 0.00094287 10.59747356 0.00394398 C11.98426974 0.0035084 13.37106584 0.00263374 14.7578615 0.00135481 C18.58654136 -0.00089275 22.41519351 0.00313468 26.24386984 0.00813287 C30.36590851 0.01243347 34.48794549 0.01099123 38.60998577 0.0102306 C45.75763424 0.00970512 52.90527362 0.01285447 60.05291981 0.01846844 C70.38733853 0.02658014 80.72175283 0.02919832 91.05617439 0.03045643 C107.82128096 0.03264747 124.58638269 0.03930897 141.35148662 0.04875904 C157.64152544 0.05793182 173.93156294 0.06501331 190.22160381 0.06926686 C191.2249716 0.06952958 192.22833939 0.0697923 193.26211227 0.07006299 C198.29548957 0.07136798 203.32886687 0.0726317 208.36224419 0.07387489 C250.14861939 0.08424913 291.93498925 0.10186885 333.72135967 0.1241985 C333.73094966 1.56739227 333.73779844 3.01060443 333.74348491 4.45381886 C333.74759191 5.25750464 333.75169891 6.06119042 333.75593036 6.88923031 C333.71644052 9.44221757 333.37699584 11.80273454 332.86979717 14.303886 C331.14938953 23.87951166 330.33591607 33.5766774 329.34635967 43.2491985 C327.32685828 62.89947848 325.02986012 82.5019447 322.72135967 102.1241985 C211.84135967 102.1241985 100.96135967 102.1241985 -13.27864033 102.1241985 C-13.27864033 93.52000604 -13.08073413 85.45646087 -12.10676533 76.9835735 C-11.98429936 75.86896748 -11.86183338 74.75436146 -11.73565632 73.6059795 C-11.34049186 70.02787821 -10.93499789 66.45104438 -10.52864033 62.8741985 C-10.25326639 60.40923555 -9.97828474 57.94422874 -9.70368916 55.47917897 C-8.90739194 48.35945903 -8.09562018 41.24157132 -7.27864033 34.1241985 C-7.16590779 33.1389922 -7.05317524 32.1537859 -6.93702656 31.13872486 C-6.29195276 25.50744165 -5.63505698 19.87769626 -4.96614033 14.2491985 C-4.88537251 13.56047657 -4.80460469 12.87175465 -4.72138935 12.16216236 C-4.49908737 10.27655089 -4.26995888 8.39174778 -4.04035908 6.507011 C-3.91620625 5.47978932 -3.79205342 4.45256764 -3.66413838 3.39421803 C-3.15061352 0.37030788 -3.07831398 0.16778513 0 0 Z " fill="#E4352F" transform="translate(66.2786403298378,38.875801503658295)"/>
<path d="M0 0 C10 0 10 0 13.625 3.0625 C14.75086225 4.37426044 15.87585348 5.68676893 17 7 C18.23002215 8.10596412 19.48095639 9.18903844 20.75 10.25 C25.26238414 14.11901687 29.3596939 18.37254011 33.484375 22.64453125 C35.69497554 24.71439479 37.3120403 25.7560886 40 27 C50.48606958 17.3038424 50.48606958 17.3038424 60.6875 7.3125 C61.28175781 6.72082031 61.87601562 6.12914062 62.48828125 5.51953125 C63.80277449 4.19824476 65.09131984 2.85124228 66.375 1.5 C69 0 69 0 79 0 C79 22.11 79 44.22 79 67 C75.37 67 71.74 67 68 67 C68 50.17 68 33.34 68 16 C63.27206458 20.1369435 58.56890656 24.26129682 53.9375 28.5 C53.42509766 28.96631836 52.91269531 29.43263672 52.38476562 29.91308594 C48.90302491 33.10211394 45.62012608 36.41048184 42.5 39.953125 C41 41 41 41 39.109375 40.9609375 C36.17988309 39.62639119 34.46160656 37.70634322 32.25 35.375 C27.9981595 30.99223773 23.64061668 26.96697877 19 23 C16.36 20.69 13.72 18.38 11 16 C11 32.83 11 49.66 11 67 C7.37 67 3.74 67 0 67 C0 44.89 0 22.78 0 0 Z " fill="#FCF7F6" transform="translate(202,57)"/>
<path d="M0 0 C1.23556641 0.01740234 1.23556641 0.01740234 2.49609375 0.03515625 C3.32238281 0.04417969 4.14867187 0.05320313 5 0.0625 C5.63808594 0.07410156 6.27617187 0.08570313 6.93359375 0.09765625 C7.42859375 2.57265625 7.42859375 2.57265625 7.93359375 5.09765625 C8.59359375 5.09765625 9.25359375 5.09765625 9.93359375 5.09765625 C13.93359375 11.59765625 13.93359375 11.59765625 13.93359375 16.09765625 C14.59359375 16.09765625 15.25359375 16.09765625 15.93359375 16.09765625 C16.7774405 17.50808581 17.60828871 18.92629757 18.43359375 20.34765625 C18.89765625 21.1365625 19.36171875 21.92546875 19.83984375 22.73828125 C20.93359375 25.09765625 20.93359375 25.09765625 20.93359375 29.09765625 C21.59359375 29.09765625 22.25359375 29.09765625 22.93359375 29.09765625 C23.7774405 30.50808581 24.60828871 31.92629757 25.43359375 33.34765625 C25.89765625 34.1365625 26.36171875 34.92546875 26.83984375 35.73828125 C27.93359375 38.09765625 27.93359375 38.09765625 27.93359375 42.09765625 C28.59359375 42.09765625 29.25359375 42.09765625 29.93359375 42.09765625 C33.93359375 48.59765625 33.93359375 48.59765625 33.93359375 53.09765625 C34.59359375 53.09765625 35.25359375 53.09765625 35.93359375 53.09765625 C39.93359375 59.59765625 39.93359375 59.59765625 39.93359375 64.09765625 C40.59359375 64.09765625 41.25359375 64.09765625 41.93359375 64.09765625 C41.93359375 65.08765625 41.93359375 66.07765625 41.93359375 67.09765625 C37.97359375 67.09765625 34.01359375 67.09765625 29.93359375 67.09765625 C24.93359375 57.34765625 24.93359375 57.34765625 24.93359375 55.09765625 C24.27359375 55.09765625 23.61359375 55.09765625 22.93359375 55.09765625 C21.94359375 52.78765625 20.95359375 50.47765625 19.93359375 48.09765625 C8.38359375 48.09765625 -3.16640625 48.09765625 -15.06640625 48.09765625 C-16.53078125 50.67578125 -17.99515625 53.25390625 -19.50390625 55.91015625 C-20.19504517 57.12215698 -20.19504517 57.12215698 -20.90014648 58.35864258 C-21.44457397 59.32193481 -21.44457397 59.32193481 -22 60.3046875 C-22.37181396 60.95928955 -22.74362793 61.6138916 -23.12670898 62.28833008 C-24.20187195 64.24302037 -24.20187195 64.24302037 -25.06640625 67.09765625 C-29.02640625 67.09765625 -32.98640625 67.09765625 -37.06640625 67.09765625 C-36.25297647 63.03050734 -35.69249934 61.03307113 -33.765625 57.60546875 C-33.28907471 56.74711426 -32.81252441 55.88875977 -32.3215332 55.00439453 C-31.80421631 54.0864209 -31.28689941 53.16844727 -30.75390625 52.22265625 C-29.65563894 50.24455057 -28.55934559 48.26534788 -27.46484375 46.28515625 C-26.90120117 45.26550781 -26.33755859 44.24585938 -25.75683594 43.1953125 C-23.0547337 38.2437999 -20.46760316 33.2341187 -17.87890625 28.22265625 C-14.30943174 21.33292992 -10.68450763 14.48524474 -6.87890625 7.72265625 C-6.50419189 7.05637207 -6.12947754 6.39008789 -5.7434082 5.70361328 C-2.5713199 0.12151795 -2.5713199 0.12151795 0 0 Z " fill="#FCF4F3" transform="translate(153.06640625,56.90234375)"/>
<path d="M0 0 C0 3.3 0 6.6 0 10 C-3.04050228 9.53931784 -5.19757317 8.89490789 -7.9375 7.4375 C-13.47530227 4.95038969 -20.08616543 5.26527268 -26 6 C-28.39909273 7.21128722 -28.39909273 7.21128722 -30 9 C-30.91828794 11.86871868 -30.91828794 11.86871868 -30 15 C-25.61654911 19.95110403 -19.78440678 22.99133204 -14 26 C0.96334001 33.78294531 0.96334001 33.78294531 4 41 C4.80211494 45.96885359 5.06270664 50.81828438 2.8203125 55.421875 C-1.59557295 61.04209285 -7.08140108 63.62998041 -14 65 C-23.27480003 65.95126154 -31.62532341 65.32139621 -40 61 C-42 59 -42 59 -42.1953125 56.1796875 C-42.17210937 55.08914062 -42.14890625 53.99859375 -42.125 52.875 C-42.10695313 51.77929688 -42.08890625 50.68359375 -42.0703125 49.5546875 C-42.04710937 48.71164063 -42.02390625 47.86859375 -42 47 C-41.18015625 47.49371094 -40.3603125 47.98742187 -39.515625 48.49609375 C-37.89914062 49.45708984 -37.89914062 49.45708984 -36.25 50.4375 C-34.64898437 51.39462891 -34.64898437 51.39462891 -33.015625 52.37109375 C-27.22460386 55.49914532 -21.49782068 55.64696916 -15 55 C-11.23727938 53.77319773 -11.23727938 53.77319773 -9 51 C-7.95878792 46.8482231 -7.95878792 46.8482231 -9 43 C-11.57211389 40.30442465 -14.73976949 38.75132895 -18 37 C-20.04025972 35.86288277 -22.07600195 34.71794376 -24.11132812 33.57202148 C-25.51155988 32.7883073 -26.91638701 32.01273434 -28.32617188 31.24633789 C-39.46485415 25.13772152 -39.46485415 25.13772152 -42 19 C-42.72305736 13.08677744 -42.57765802 7.9625579 -39 3 C-28.01258835 -6.96081006 -12.84000757 -5.61750331 0 0 Z " fill="#FCF6F5" transform="translate(337,60)"/>
<path d="M0 0 C0.33 1.32 0.66 2.64 1 4 C111.88 4 222.76 4 337 4 C337 4.33 337 4.66 337 5 C243.94 5 150.88 5 55 5 C54.01 10.28 53.02 15.56 52 21 C51.34 21 50.68 21 50 21 C50 22.32 50 23.64 50 25 C44.51489368 24.40261218 40.03835497 22.47953312 35.05859375 20.25390625 C34.21329605 19.88273178 33.36799835 19.51155731 32.49708557 19.12913513 C29.80768732 17.94664685 27.12253468 16.75485866 24.4375 15.5625 C21.74800748 14.37581048 19.05768595 13.19101802 16.36720276 12.00657654 C14.69694108 11.27043262 13.02742091 10.53260331 11.35874939 9.79286194 C7.5967855 8.12719178 3.83590468 6.49064649 0 5 C0 3.35 0 1.7 0 0 Z " fill="#F6B8B2" transform="translate(52,137)"/>
<path d="M0 0 C6.38473768 4.76947536 6.38473768 4.76947536 8 8 C8.47197603 12.64109762 8.5625408 15.76860271 6 19.75 C2.17406792 24.40719309 -1.98512782 26.65136826 -7.97265625 27.34375 C-15.99578296 27.582356 -20.77493184 26.10189737 -26.875 20.875 C-29.40747286 18.18990042 -30.56803033 16.26532159 -30.875 12.5625 C-30.46397165 7.84776308 -28.3975487 4.97892818 -25.12890625 1.6640625 C-17.53361858 -4.27280456 -8.35151515 -4.47402597 0 0 Z " fill="#FBFBFB" transform="translate(285,152)"/>
<path d="M0 0 C3.8053125 -0.12375 3.8053125 -0.12375 7.6875 -0.25 C8.87218872 -0.30462402 8.87218872 -0.30462402 10.08081055 -0.36035156 C13.86634272 -0.41970243 15.66375279 -0.20526464 18.98828125 1.82421875 C21 4 21 4 21.5 7.0625 C20.96917166 10.18111649 20.4832167 11.13758747 18 13 C18.99 13.515625 19.98 14.03125 21 14.5625 C24 17 24 17 24.5625 20.5625 C24 24 24 24 22.75 25.8125 C22.1725 26.204375 21.595 26.59625 21 27 C20.484375 27.35191406 19.96875 27.70382813 19.4375 28.06640625 C15.74125022 29.4821173 12.16728044 29.20880399 8.25 29.125 C4.16625 29.063125 4.16625 29.063125 0 29 C0 19.43 0 9.86 0 0 Z " fill="#A1A1A1" transform="translate(125,150)"/>
<path d="M0 0 C6 0 6 0 8.48535156 1.82006836 C9.2790918 2.65159424 10.07283203 3.48312012 10.890625 4.33984375 C11.76460938 5.23767578 12.63859375 6.13550781 13.5390625 7.06054688 C14.88097656 8.48463867 14.88097656 8.48463867 16.25 9.9375 C18.04508447 11.80250631 19.84187241 13.665875 21.640625 15.52734375 C22.42985352 16.35999756 23.21908203 17.19265137 24.03222656 18.05053711 C25.85183457 20.05582973 25.85183457 20.05582973 28 21 C28 14.07 28 7.14 28 0 C29.65 0 31.3 0 33 0 C33 9.24 33 18.48 33 28 C27.32310024 28 25.94513968 26.71393207 22.1875 23 C21.66559082 22.50322754 21.14368164 22.00645508 20.60595703 21.49462891 C16.8398425 17.89079693 13.14753265 14.20736497 9.5234375 10.4609375 C8.04566676 8.89937709 8.04566676 8.89937709 6 8 C6 14.93 6 21.86 6 29 C4.02 29 2.04 29 0 29 C0 19.43 0 9.86 0 0 Z " fill="#A5A5A5" transform="translate(298,150)"/>
<path d="M0 0 C6.38473768 4.76947536 6.38473768 4.76947536 8 8 C8.47197603 12.64109762 8.5625408 15.76860271 6 19.75 C2.17406792 24.40719309 -1.98512782 26.65136826 -7.97265625 27.34375 C-15.99578296 27.582356 -20.77493184 26.10189737 -26.875 20.875 C-29.40747286 18.18990042 -30.56803033 16.26532159 -30.875 12.5625 C-30.46397165 7.84776308 -28.3975487 4.97892818 -25.12890625 1.6640625 C-17.53361858 -4.27280456 -8.35151515 -4.47402597 0 0 Z M-23 6 C-24.74475059 9.48950118 -24.71470405 13.20354453 -24 17 C-21.86704545 19.80237413 -19.14146646 21.42926677 -16 23 C-10.31001158 23.5917588 -5.87570798 23.25047199 -1 20 C1.87458039 17.41287765 2.0023243 15.98169613 2.5 12.0625 C2.36730678 8.66934482 1.99814226 7.9975584 -0.1875 5.125 C-8.19062967 -0.92180908 -15.36974613 -0.14142385 -23 6 Z " fill="#A3A3A3" transform="translate(285,152)"/>
<path d="M0 0 C1.65 0 3.3 0 5 0 C5.0093457 0.62044189 5.01869141 1.24088379 5.02832031 1.88012695 C5.08200995 4.69172677 5.16565646 7.5016598 5.25 10.3125 C5.26417969 11.28896484 5.27835938 12.26542969 5.29296875 13.27148438 C5.32519531 14.20927734 5.35742188 15.14707031 5.390625 16.11328125 C5.4220459 17.40939331 5.4220459 17.40939331 5.45410156 18.73168945 C5.81840856 21.15329773 5.81840856 21.15329773 7.88574219 22.78051758 C10.43430696 24.25050384 12.07198154 24.40178066 15 24.375 C15.845625 24.38273437 16.69125 24.39046875 17.5625 24.3984375 C20.55321233 23.90957106 21.80345981 23.07397302 24 21 C24.63861488 18.69600915 24.63861488 18.69600915 24.609375 16.11328125 C24.64160156 15.17548828 24.67382812 14.23769531 24.70703125 13.27148438 C24.72121094 12.29501953 24.73539063 11.31855469 24.75 10.3125 C24.79447266 8.83040039 24.79447266 8.83040039 24.83984375 7.31835938 C24.91055492 4.87882404 24.96324265 2.44024475 25 0 C26.65 0 28.3 0 30 0 C30.14611313 3.37453898 30.23433467 6.74825766 30.3125 10.125 C30.35439453 11.07632813 30.39628906 12.02765625 30.43945312 13.0078125 C30.57763529 20.967105 30.57763529 20.967105 27.73046875 24.5546875 C22.53875181 29.20420796 18.85777356 29.43325831 11.98828125 29.32421875 C7.67163439 28.85587667 5.44177346 27.61874068 2 25 C-0.20192224 21.69711664 -0.23959968 20.72537273 -0.1953125 16.89453125 C-0.18886719 15.91162109 -0.18242187 14.92871094 -0.17578125 13.91601562 C-0.15902344 12.89185547 -0.14226562 11.86769531 -0.125 10.8125 C-0.11597656 9.77673828 -0.10695312 8.74097656 -0.09765625 7.67382812 C-0.0740786 5.11565315 -0.0411703 2.55794252 0 0 Z " fill="#A2A2A2" transform="translate(155,150)"/>
<path d="M0 0 C0.99 0.33 1.98 0.66 3 1 C3 2.32 3 3.64 3 5 C3.66 5 4.32 5 5 5 C7.74522883 9.42778844 9.48474397 12.71862571 10 18 C10.66 18 11.32 18 12 18 C12.66 19.98 13.32 21.96 14 24 C5.75 24 -2.5 24 -11 24 C-10.194448 19.97223999 -9.57184736 17.81090584 -7.71484375 14.35546875 C-7.04291992 13.09379883 -7.04291992 13.09379883 -6.35742188 11.80664062 C-5.88884766 10.94232422 -5.42027344 10.07800781 -4.9375 9.1875 C-4.46505859 8.30384766 -3.99261719 7.42019531 -3.50585938 6.50976562 C-2.34296716 4.33668422 -1.17421625 2.16697716 0 0 Z " fill="#E4443E" transform="translate(154,72)"/>
<path d="M0 0 C1.98 0 3.96 0 6 0 C6 8.25 6 16.5 6 25 C11.28 25 16.56 25 22 25 C22 26.32 22 27.64 22 29 C14.74 29 7.48 29 0 29 C0 19.43 0 9.86 0 0 Z " fill="#AAAAAA" transform="translate(218,150)"/>
<path d="M0 0 C1.98 0 3.96 0 6 0 C6 8.25 6 16.5 6 25 C11.28 25 16.56 25 22 25 C22 26.32 22 27.64 22 29 C14.74 29 7.48 29 0 29 C0 19.43 0 9.86 0 0 Z " fill="#AAAAAA" transform="translate(192,150)"/>
<path d="M0 0 C1.98 0 3.96 0 6 0 C6 9.57 6 19.14 6 29 C4.02 29 2.04 29 0 29 C0 19.43 0 9.86 0 0 Z " fill="#ACACAC" transform="translate(244,150)"/>
<path d="M0 0 C1.77049689 -0.05410687 3.54146849 -0.09284119 5.3125 -0.125 C6.29863281 -0.14820313 7.28476563 -0.17140625 8.30078125 -0.1953125 C11 0 11 0 14 2 C14.1875 4.625 14.1875 4.625 14 7 C10.78817851 8.90608098 8.46117397 9.22266247 4.75 9.125 C3.85796875 9.10695312 2.9659375 9.08890625 2.046875 9.0703125 C1.03367188 9.03550781 1.03367188 9.03550781 0 9 C0 6.03 0 3.06 0 0 Z " fill="#F5F5F5" transform="translate(130,166)"/>
<path d="M0 0 C6.4 -0.36923077 6.4 -0.36923077 9.4375 1.5 C9.953125 1.995 10.46875 2.49 11 3 C10.625 5.4375 10.625 5.4375 10 8 C6.78548731 9.60725635 3.56387464 9.05748185 0 9 C0 6.03 0 3.06 0 0 Z " fill="#F3F3F3" transform="translate(130,153)"/>
<path d="M0 0 C0.66 0.33 1.32 0.66 2 1 C1.195625 1.66 0.39125 2.32 -0.4375 3 C-3.75148924 6.87979228 -3.74577025 9.00014825 -4 14 C-4.33 14 -4.66 14 -5 14 C-5.78774617 5.96498906 -5.78774617 5.96498906 -2.5 1.9375 C-1.2625 0.9784375 -1.2625 0.9784375 0 0 Z " fill="#E7E7E7" transform="translate(266,155)"/>
<path d="M0 0 C0.66 0.33 1.32 0.66 2 1 C-0.64 3.64 -3.28 6.28 -6 9 C-6.33 8.34 -6.66 7.68 -7 7 C-4.66666667 4.66666667 -2.33333333 2.33333333 0 0 Z " fill="#F5D7D4" transform="translate(303,59)"/>
</svg>
