<?xml version="1.0" encoding="UTF-8"?>
<svg version="1.1" xmlns="http://www.w3.org/2000/svg" width="356" height="134">
<path d="M0 0 C117.48 0 234.96 0 356 0 C356 44.22 356 88.44 356 134 C238.52 134 121.04 134 0 134 C0 89.78 0 45.56 0 0 Z " fill="#11401B" transform="translate(0,0)"/>
<path d="M0 0 C3.66604934 -0.17590542 7.33099992 -0.28138031 11 -0.375 C12.02996094 -0.42527344 13.05992187 -0.47554687 14.12109375 -0.52734375 C20.65560016 -0.65220693 24.45348999 0.14395192 29.4765625 4.41992188 C32.9218254 7.99327788 33.8722906 11.01025213 34.5 15.875 C34.31260898 20.75653603 32.01825179 24.28062457 29 28 C26.6875 30 26.6875 30 25 31 C26.4540625 32.175625 26.4540625 32.175625 27.9375 33.375 C30.71954915 35.62431634 31.87281662 36.85534954 32.28125 40.53125 C32.42708333 42.51041667 32.57291667 44.48958333 32.71875 46.46875 C32.85132612 48.99074004 32.85132612 48.99074004 34 51 C28.4975892 51.36682739 28.4975892 51.36682739 26.3203125 49.76171875 C24.67523411 47.56665853 24.7013934 46.33884406 24.6875 43.625 C24.3601423 39.83259187 24.08445609 39.10134731 21.5 36 C17.63391709 33.25602408 13.63240311 33.21056378 9 33 C9 38.61 9 44.22 9 50 C9.66 50.33 10.32 50.66 11 51 C7.37 51 3.74 51 0 51 C0.99 50.505 0.99 50.505 2 50 C2 33.83 2 17.66 2 1 C1.34 0.67 0.68 0.34 0 0 Z " fill="#C5AE6E" transform="translate(186,27)"/>
<path d="M0 0 C3.96 0 7.92 0 12 0 C12 0.66 12 1.32 12 2 C11.34 2 10.68 2 10 2 C9.67 9.92 9.34 17.84 9 26 C11.371875 24.63875 13.74375 23.2775 16.1875 21.875 C16.92508545 21.45976074 17.6626709 21.04452148 18.42260742 20.61669922 C23.48800812 17.64107558 27.317053 14.365894 30 9 C30.22467831 7.46331135 30.40796805 5.92031946 30.5625 4.375 C30.64628906 3.55773437 30.73007813 2.74046875 30.81640625 1.8984375 C30.90728516 0.95871094 30.90728516 0.95871094 31 0 C33.31 0 35.62 0 38 0 C36.98699533 8.61053973 30.19272554 14.52421751 24 20 C21.70748921 21.56878019 19.50201886 22.77560779 17 24 C17.515625 24.2475 18.03125 24.495 18.5625 24.75 C19.366875 25.1625 20.17125 25.575 21 26 C22.1034375 26.54269531 23.206875 27.08539063 24.34375 27.64453125 C28.43240409 29.9898782 30.46646856 33.01361744 32.9375 36.9375 C36.67225948 42.54972927 39.86150148 45.93075074 46 49 C46 49.33 46 49.66 46 50 C36.51218712 51.03086901 36.51218712 51.03086901 32.5 47.875 C28.59755861 44.02830778 25.52861553 39.37406517 22.46289062 34.85107422 C20.46398884 31.91548515 18.99271028 29.99514019 16 28 C12.87478167 27.83300768 12.87478167 27.83300768 10 28 C9.94598305 30.91691525 9.90631934 33.83282724 9.875 36.75 C9.85824219 37.575 9.84148437 38.4 9.82421875 39.25 C9.81455078 40.44882813 9.81455078 40.44882813 9.8046875 41.671875 C9.78897705 42.77160645 9.78897705 42.77160645 9.77294922 43.89355469 C9.92196359 46.42523424 9.92196359 46.42523424 12 50 C8.04 50 4.08 50 0 50 C0 49.34 0 48.68 0 48 C0.66 48 1.32 48 2 48 C2 32.82 2 17.64 2 2 C1.34 2 0.68 2 0 2 C0 1.34 0 0.68 0 0 Z " fill="#D2B674" transform="translate(132,27)"/>
<path d="M0 0 C3.97702256 1.84336447 5.90259031 3.10566494 7.640625 7.2421875 C5.990625 7.5721875 4.340625 7.9021875 2.640625 8.2421875 C2.021875 7.2521875 1.403125 6.2621875 0.765625 5.2421875 C-1.03949404 3.05949342 -1.98149347 2.32643249 -4.77734375 1.703125 C-8.78449158 1.57290749 -11.50505754 1.7336652 -14.984375 3.8046875 C-16.94510974 7.28053545 -17.04838045 9.31485643 -16.359375 13.2421875 C-11.4121263 18.14305575 -5.82527892 20.49623133 0.5390625 23.11523438 C5.49238958 25.28890184 8.10399048 27.23480508 10.640625 32.2421875 C11.11079901 36.07074732 11.0125857 38.40038171 9.453125 41.9296875 C5.89950206 46.46362022 2.2547458 48.9212179 -3.359375 50.2421875 C-9.79031185 50.86453623 -13.93827147 49.75630992 -19.359375 46.2421875 C-21.859375 44.1796875 -21.859375 44.1796875 -23.359375 42.2421875 C-23.359375 41.2521875 -23.359375 40.2621875 -23.359375 39.2421875 C-20.884375 38.7471875 -20.884375 38.7471875 -18.359375 38.2421875 C-17.781875 39.1703125 -17.204375 40.0984375 -16.609375 41.0546875 C-14.03899191 44.84181992 -14.03899191 44.84181992 -10.359375 47.2421875 C-6.09013909 47.81997883 -2.44980279 47.60566343 1.640625 46.2421875 C4.20250615 43.68030635 4.68127565 41.80639827 4.890625 38.234375 C4.76006598 35.96825911 4.76006598 35.96825911 2.765625 33.4921875 C-0.38137709 31.226346 -3.32146251 29.81373658 -6.87890625 28.3359375 C-9.59916316 27.13645414 -12.15409217 25.78128731 -14.734375 24.3046875 C-15.54648437 23.84191406 -16.35859375 23.37914063 -17.1953125 22.90234375 C-21.03670814 19.95542471 -22.2349163 17.09956968 -22.921875 12.3671875 C-22.76695214 8.06196273 -20.90856875 5.77792819 -18.0625 2.6875 C-12.84597109 -1.73937087 -6.40581674 -2.05749743 0 0 Z " fill="#D1B673" transform="translate(64.359375,27.7578125)"/>
<path d="M0 0 C-0.32436035 0.5043457 -0.6487207 1.00869141 -0.98291016 1.52832031 C-2.3533808 4.85876793 -2.27849808 8.00416514 -2.2734375 11.546875 C-2.29373695 13.04688232 -2.31458792 14.54688226 -2.3359375 16.046875 C-2.35845525 18.3945947 -2.37498002 20.74202131 -2.38085938 23.08984375 C-2.4499973 39.48935977 -2.4499973 39.48935977 -7 46 C-12.71157136 50.64065173 -17.71888786 51.72678978 -25 51 C-30.54881968 49.70220976 -34.44343892 47.57272138 -38 43 C-41.92659329 35.25241862 -41.52376139 27.10842024 -41.625 18.625 C-41.66155706 16.41666481 -41.7021283 14.20850422 -41.74765015 12.00033569 C-41.78710063 10.01289754 -41.81499545 8.02523998 -41.84228516 6.03759766 C-41.79260962 3.08125158 -41.79260962 3.08125158 -43 1 C-39.37 1 -35.74 1 -32 1 C-32.33 1.66 -32.66 2.32 -33 3 C-33.123133 5.55594264 -33.18836859 8.08357052 -33.203125 10.640625 C-33.20882507 11.40042664 -33.21452515 12.16022827 -33.22039795 12.9430542 C-33.22985192 14.55365607 -33.23638351 16.16427733 -33.24023438 17.77490234 C-33.24990762 20.22658632 -33.2809125 22.67742027 -33.3125 25.12890625 C-33.31903352 26.69530753 -33.32428262 28.2617148 -33.328125 29.828125 C-33.3404718 30.55646545 -33.3528186 31.28480591 -33.36553955 32.03521729 C-33.34503469 36.77569444 -32.50588711 39.97837131 -30 44 C-25.89587667 47.71325444 -22.55970633 48.64422858 -17.1796875 48.390625 C-12.97766294 47.637574 -10.3191894 45.29606635 -7.35644531 42.38525391 C-5.37001036 38.89218885 -5.61020686 35.49381647 -5.671875 31.5859375 C-5.67374817 30.77508698 -5.67562134 29.96423645 -5.67755127 29.1288147 C-5.68426069 27.41916781 -5.69815318 25.70953598 -5.71875 24 C-5.74997072 21.37745973 -5.75972907 18.7555204 -5.765625 16.1328125 C-5.77479276 14.47134681 -5.7851678 12.80988724 -5.796875 11.1484375 C-5.80112488 10.36197845 -5.80537476 9.57551941 -5.80975342 8.76522827 C-5.77640506 4.75199201 -5.77640506 4.75199201 -7 1 C-2.25 0 -2.25 0 0 0 Z " fill="#C9B170" transform="translate(125,27)"/>
<path d="M0 0 C10.15861411 1.1287349 10.15861411 1.1287349 12.9375 3.8125 C13.48277344 4.31394531 14.02804688 4.81539062 14.58984375 5.33203125 C17.84773207 9.18554458 18.5512534 12.66597444 18.453125 17.61328125 C17.52682575 22.49232296 14.27471268 26.36700672 10.296875 29.22265625 C8 30 8 30 0 30 C0 20.1 0 10.2 0 0 Z " fill="#13421C" transform="translate(195,28)"/>
<path d="M0 0 C12.21 0 24.42 0 37 0 C37 2.97 37 5.94 37 9 C36.34 9 35.68 9 35 9 C33.98133771 7.34467377 32.98189187 5.67739862 32 4 C29.18010841 2.40371521 29.18010841 2.40371521 22 3 C22 17.85 22 32.7 22 48 C22.66 48 23.32 48 24 48 C24 48.66 24 49.32 24 50 C20.04 50 16.08 50 12 50 C12.66 49.01 13.32 48.02 14 47 C14.3260368 44.88191719 14.3260368 44.88191719 14.31884766 42.52856445 C14.33871735 41.62785721 14.35858704 40.72714996 14.37905884 39.79914856 C14.39638565 38.34589424 14.39638565 38.34589424 14.4140625 36.86328125 C14.43342865 35.86870407 14.4527948 34.87412689 14.4727478 33.84941101 C14.53256159 30.6705281 14.57893639 27.49160902 14.625 24.3125 C14.6631781 22.15818727 14.70222973 20.00388983 14.7421875 17.84960938 C14.83826451 12.56654191 14.92330674 7.28338247 15 2 C13.57319633 2.0995796 12.14757668 2.21620485 10.72265625 2.33984375 C9.92867432 2.40292725 9.13469238 2.46601074 8.31665039 2.53100586 C4.54581712 3.29439196 2.67967479 5.32032521 0 8 C0 5.36 0 2.72 0 0 Z " fill="#CDB371" transform="translate(252,27)"/>
<path d="M0 0 C3.63 0 7.26 0 11 0 C10.01 1.485 10.01 1.485 9 3 C8.7115117 5.07898722 8.7115117 5.07898722 8.77294922 7.37963867 C8.77310028 8.26032516 8.77325134 9.14101166 8.77340698 10.04838562 C8.78372955 10.99534805 8.79405212 11.94231049 8.8046875 12.91796875 C8.8075174 13.89034988 8.81034729 14.86273102 8.81326294 15.86457825 C8.82446401 18.97234366 8.84956852 22.07982159 8.875 25.1875 C8.88502989 27.29361563 8.89415573 29.39973578 8.90234375 31.50585938 C8.92440312 36.6706838 8.95893254 41.83529315 9 47 C9.66 47 10.32 47 11 47 C11 47.66 11 48.32 11 49 C7.37 49 3.74 49 0 49 C0.33 48.01 0.66 47.02 1 46 C1.09107099 44.55292113 1.12789437 43.10204062 1.12939453 41.65209961 C1.13254669 40.7778685 1.13569885 39.90363739 1.13894653 39.00291443 C1.1369223 38.0622261 1.13489807 37.12153778 1.1328125 36.15234375 C1.13376923 35.18470596 1.13472595 34.21706818 1.13571167 33.22010803 C1.13639214 31.17497696 1.13454712 29.12984372 1.13037109 27.0847168 C1.12501519 23.94640277 1.13032357 20.80823148 1.13671875 17.66992188 C1.13605806 15.68489552 1.13477708 13.69986925 1.1328125 11.71484375 C1.13483673 10.7721312 1.13686096 9.82941864 1.13894653 8.85813904 C1.13579437 7.98706009 1.13264221 7.11598114 1.12939453 6.21850586 C1.12859894 5.45034042 1.12780334 4.68217499 1.12698364 3.89073181 C1.1162711 1.91064828 1.1162711 1.91064828 0 0 Z " fill="#D3B774" transform="translate(295,28)"/>
<path d="M0 0 C3.3 0 6.6 0 10 0 C9.67 0.99 9.34 1.98 9 3 C8.90465081 4.3750717 8.86195934 5.75421374 8.85473633 7.13256836 C8.84835648 7.96030258 8.84197662 8.7880368 8.83540344 9.64085388 C8.83429062 10.53152054 8.8331778 11.42218719 8.83203125 12.33984375 C8.82870285 13.2583461 8.82537445 14.17684845 8.82194519 15.1231842 C8.81688272 17.06576029 8.81453666 19.00834506 8.81469727 20.95092773 C8.81251103 23.92250898 8.79434884 26.89371883 8.77539062 29.86523438 C8.77245652 31.7526029 8.77047184 33.63997318 8.76953125 35.52734375 C8.76234573 36.41598618 8.75516022 37.3046286 8.74775696 38.22019958 C8.75083359 39.05108597 8.75391022 39.88197235 8.75708008 40.73803711 C8.75494255 41.83032875 8.75494255 41.83032875 8.75276184 42.94468689 C8.93472038 45.43142431 8.93472038 45.43142431 11 49 C7.04 49 3.08 49 -1 49 C-0.34 47.68 0.32 46.36 1 45 C1.29183723 42.92456461 1.29183723 42.92456461 1.24291992 40.73803711 C1.24599655 39.90715073 1.24907318 39.07626434 1.25224304 38.22019958 C1.24505753 37.33155716 1.23787201 36.44291473 1.23046875 35.52734375 C1.23001053 34.60788467 1.22955231 33.6884256 1.2290802 32.74110413 C1.22606301 30.80028999 1.21819267 28.85947816 1.20581055 26.91870117 C1.18754645 23.94506268 1.18530101 20.97173563 1.18554688 17.99804688 C1.18063166 16.11197647 1.17480333 14.22590818 1.16796875 12.33984375 C1.16685593 11.44917709 1.1657431 10.55851044 1.16459656 9.64085388 C1.15502678 8.39925255 1.15502678 8.39925255 1.14526367 7.13256836 C1.14145187 6.40516953 1.13764008 5.67777069 1.13371277 4.92832947 C1.06541743 2.77984403 1.06541743 2.77984403 0 0 Z " fill="#D5B875" transform="translate(235,28)"/>
<path d="M0 0 C2.31 0 4.62 0 7 0 C5.98699533 8.61053973 -0.80727446 14.52421751 -7 20 C-9.29251079 21.56878019 -11.49798114 22.77560779 -14 24 C-13.484375 24.2475 -12.96875 24.495 -12.4375 24.75 C-11.633125 25.1625 -10.82875 25.575 -10 26 C-8.8965625 26.54269531 -7.793125 27.08539063 -6.65625 27.64453125 C-2.56759591 29.9898782 -0.53353144 33.01361744 1.9375 36.9375 C5.67225948 42.54972927 8.86150148 45.93075074 15 49 C15 49.33 15 49.66 15 50 C5.51218712 51.03086901 5.51218712 51.03086901 1.5 47.875 C-2.40244139 44.02830778 -5.47138447 39.37406517 -8.53710938 34.85107422 C-10.53601116 31.91548515 -12.00728972 29.99514019 -15 28 C-17.33199388 27.92094936 -19.66832622 27.91201231 -22 28 C-22 27.34 -22 26.68 -22 26 C-18.97489021 24.09741523 -15.90240955 22.34866802 -12.77148438 20.62890625 C-7.58243238 17.66228726 -3.73608254 14.47216508 -1 9 C-0.77532169 7.46331135 -0.59203195 5.92031946 -0.4375 4.375 C-0.35371094 3.55773437 -0.26992187 2.74046875 -0.18359375 1.8984375 C-0.09271484 0.95871094 -0.09271484 0.95871094 0 0 Z " fill="#CEB472" transform="translate(163,27)"/>
<path d="M0 0 C1.65 0 3.3 0 5 0 C5 16.17 5 32.34 5 49 C3.35 49 1.7 49 0 49 C0 32.83 0 16.66 0 0 Z " fill="#DDBD79" transform="translate(189,28)"/>
<path d="M0 0 C3.33773709 3.64116773 3.97864902 7.28607242 5 12 C5.66 12 6.32 12 7 12 C7.20496094 11.37351562 7.40992188 10.74703125 7.62109375 10.1015625 C7.89050781 9.28429687 8.15992188 8.46703125 8.4375 7.625 C8.70433594 6.81289062 8.97117188 6.00078125 9.24609375 5.1640625 C10 3 10 3 11 1 C12.32 1.33 13.64 1.66 15 2 C13.7192029 5.15036923 12.42357064 8.29441985 11.125 11.4375 C10.76019531 12.33533203 10.39539063 13.23316406 10.01953125 14.15820312 C9.66503906 15.01220703 9.31054688 15.86621094 8.9453125 16.74609375 C8.62062988 17.53685303 8.29594727 18.3276123 7.96142578 19.14233398 C7 21 7 21 5 22 C3.35 18.37 1.7 14.74 0 11 C-1.32 14.63 -2.64 18.26 -4 22 C-4.66 22 -5.32 22 -6 22 C-8.64 15.07 -11.28 8.14 -14 1 C-11.525 1.495 -11.525 1.495 -9 2 C-7.85546875 3.7421875 -7.85546875 3.7421875 -7.1875 5.875 C-6.83751953 6.92300781 -6.83751953 6.92300781 -6.48046875 7.9921875 C-6 10 -6 10 -6 13 C-5.34 13 -4.68 13 -4 13 C-3.896875 12.154375 -3.79375 11.30875 -3.6875 10.4375 C-2.9171146 6.58557299 -1.63725486 3.55924969 0 0 Z " fill="#C9B06F" transform="translate(163,94)"/>
<path d="M0 0 C3.96 0 7.92 0 12 0 C12 0.99 12 1.98 12 3 C9.36 3 6.72 3 4 3 C4 4.65 4 6.3 4 8 C6.64 8 9.28 8 12 8 C12 8.99 12 9.98 12 11 C9.36 11 6.72 11 4 11 C4 12.98 4 14.96 4 17 C6.64 17 9.28 17 12 17 C12 18.32 12 19.64 12 21 C8.04 21 4.08 21 0 21 C0 14.07 0 7.14 0 0 Z " fill="#C2AC6D" transform="translate(131,95)"/>
<path d="M0 0 C3.96 0 7.92 0 12 0 C12 0.99 12 1.98 12 3 C9.03 3 6.06 3 3 3 C3 4.65 3 6.3 3 8 C5.64 8 8.28 8 11 8 C11 9.32 11 10.64 11 12 C8.69 12 6.38 12 4 12 C4 13.65 4 15.3 4 17 C6.64 17 9.28 17 12 17 C12 18.32 12 19.64 12 21 C8.04 21 4.08 21 0 21 C0 14.07 0 7.14 0 0 Z " fill="#C0AB6A" transform="translate(185,95)"/>
<path d="M0 0 C1.670625 0.061875 1.670625 0.061875 3.375 0.125 C4.035 1.445 4.695 2.765 5.375 4.125 C2.735 3.795 0.095 3.465 -2.625 3.125 C-2.625 4.445 -2.625 5.765 -2.625 7.125 C-1.696875 7.393125 -0.76875 7.66125 0.1875 7.9375 C4.96323529 9.7166955 4.96323529 9.7166955 6.375 12.125 C6.25 15.6875 6.25 15.6875 5.375 19.125 C1.90576119 21.43782587 0.45294425 21.54978586 -3.625 21.125 C-5.5 19.875 -5.5 19.875 -6.625 18.125 C-6.625 16.805 -6.625 15.485 -6.625 14.125 C-5.635 14.125 -4.645 14.125 -3.625 14.125 C-3.295 15.445 -2.965 16.765 -2.625 18.125 C-1.305 17.795 0.015 17.465 1.375 17.125 C1.705 15.475 2.035 13.825 2.375 12.125 C1.446875 11.856875 0.51875 11.58875 -0.4375 11.3125 C-5.0766129 9.58420304 -5.0766129 9.58420304 -6.625 7.125 C-6.25948682 2.12965327 -5.2430286 0.18079409 0 0 Z " fill="#C9B171" transform="translate(227.625,94.875)"/>
<path d="M0 0 C-0.48654053 0.75651855 -0.48654053 0.75651855 -0.98291016 1.52832031 C-2.3533808 4.85876793 -2.27849808 8.00416514 -2.2734375 11.546875 C-2.29373695 13.04688232 -2.31458792 14.54688226 -2.3359375 16.046875 C-2.35845525 18.3945947 -2.37498002 20.74202131 -2.38085938 23.08984375 C-2.4499973 39.48935977 -2.4499973 39.48935977 -7 46 C-13.06301751 50.92620173 -17.50517876 51.12491369 -25 51 C-25 50.34 -25 49.68 -25 49 C-24.34773438 48.97421875 -23.69546875 48.9484375 -23.0234375 48.921875 C-16.32154802 48.48694412 -12.27197018 47.21448172 -7.36035156 42.38916016 C-5.37036142 38.89417747 -5.61015746 35.49694694 -5.671875 31.5859375 C-5.67374817 30.77508698 -5.67562134 29.96423645 -5.67755127 29.1288147 C-5.68426069 27.41916781 -5.69815318 25.70953598 -5.71875 24 C-5.74997072 21.37745973 -5.75972907 18.7555204 -5.765625 16.1328125 C-5.77479276 14.47134681 -5.7851678 12.80988724 -5.796875 11.1484375 C-5.80112488 10.36197845 -5.80537476 9.57551941 -5.80975342 8.76522827 C-5.77640506 4.75199201 -5.77640506 4.75199201 -7 1 C-2.25 0 -2.25 0 0 0 Z " fill="#99935A" transform="translate(125,27)"/>
<path d="M0 0 C1.32 0 2.64 0 4 0 C4 5.61 4 11.22 4 17 C5.98 17 7.96 17 10 17 C10 18.32 10 19.64 10 21 C6.7 21 3.4 21 0 21 C0 14.07 0 7.14 0 0 Z " fill="#C2AD6D" transform="translate(205,95)"/>
<path d="M0 0 C2.31 0 4.62 0 7 0 C5.98699533 8.61053973 -0.80727446 14.52421751 -7 20 C-9.29251079 21.56878019 -11.49798114 22.77560779 -14 24 C-14 24.66 -14 25.32 -14 26 C-15.65 25.67 -17.3 25.34 -19 25 C-16.89475278 23.38695178 -14.77484419 21.8509786 -12.5625 20.38671875 C-5.59605811 15.81032244 -5.59605811 15.81032244 -1 9 C-0.43288264 6.00167515 -0.13541298 3.04679211 0 0 Z " fill="#BDA96A" transform="translate(163,27)"/>
<path d="M0 0 C1.33333333 2 2.66666667 4 4 6 C5.94598619 8.16220688 7.18927681 8.90399331 10.078125 9.24609375 C14.48282995 9.37006723 18.01249478 9.05806721 22 7 C22.33 7.66 22.66 8.32 23 9 C16.83633364 11.6415713 11.42430235 13.57434117 4.859375 11.23828125 C0.97674377 9.41919662 -2.33693115 7.43979727 -5 4 C-5 3.01 -5 2.02 -5 1 C-2 0 -2 0 0 0 Z " fill="#B9A768" transform="translate(46,66)"/>
<path d="M0 0 C0.99 0 1.98 0 3 0 C3.08086376 2.93804996 3.1404283 5.87388075 3.1875 8.8125 C3.21263672 9.64587891 3.23777344 10.47925781 3.26367188 11.33789062 C3.27817383 12.54155273 3.27817383 12.54155273 3.29296875 13.76953125 C3.31653442 14.87711792 3.31653442 14.87711792 3.34057617 16.00708008 C2.90199296 18.57349926 2.0551054 19.44612499 0 21 C-2.6875 21.1875 -2.6875 21.1875 -5 21 C-5 19.68 -5 18.36 -5 17 C-3.68 17 -2.36 17 -1 17 C-0.67 11.39 -0.34 5.78 0 0 Z " fill="#CEB372" transform="translate(119,95)"/>
<path d="M0 0 C3.96881865 1.85356915 5.89534293 3.11091618 7.6328125 7.24609375 C5.9828125 7.57609375 4.3328125 7.90609375 2.6328125 8.24609375 C2.0140625 7.25609375 1.3953125 6.26609375 0.7578125 5.24609375 C-1.0354569 3.08392322 -1.9805604 2.33356021 -4.75 1.70703125 C-9.03656501 1.56627837 -11.5997102 1.74556508 -15.2421875 4.12109375 C-15.9434375 4.82234375 -16.6446875 5.52359375 -17.3671875 6.24609375 C-18.67857654 6.95495269 -20.00495767 7.64065827 -21.3671875 8.24609375 C-17.8161393 -0.79293802 -8.55618347 -2.72498912 0 0 Z " fill="#C5AE6E" transform="translate(64.3671875,27.75390625)"/>
<path d="M0 0 C-0.48218994 0.76135254 -0.48218994 0.76135254 -0.97412109 1.53808594 C-2.33550357 4.8051447 -2.35479731 7.90529432 -2.4140625 11.390625 C-2.43342865 12.09523865 -2.4527948 12.79985229 -2.4727478 13.52581787 C-2.53232735 15.76709039 -2.57884123 18.00841489 -2.625 20.25 C-2.66319979 21.77345938 -2.70225269 23.29689762 -2.7421875 24.8203125 C-2.83801018 28.54668106 -2.92212107 32.27320835 -3 36 C-3.33 36 -3.66 36 -4 36 C-4.01981934 35.11739502 -4.03963867 34.23479004 -4.06005859 33.32543945 C-4.13837866 30.03578043 -4.22507855 26.74656036 -4.31738281 23.45727539 C-4.35555149 22.0364627 -4.39042513 20.61555737 -4.421875 19.19458008 C-4.46779065 17.14631145 -4.52573805 15.09867392 -4.5859375 13.05078125 C-4.6173584 11.82012939 -4.6487793 10.58947754 -4.68115234 9.3215332 C-4.98595035 6.14635945 -5.64442201 3.86573943 -7 1 C-2.25 0 -2.25 0 0 0 Z " fill="#DABB77" transform="translate(125,27)"/>
<path d="M0 0 C0 0.33 0 0.66 0 1 C-0.92232422 1.16435547 -0.92232422 1.16435547 -1.86328125 1.33203125 C-2.67152344 1.49058594 -3.47976562 1.64914063 -4.3125 1.8125 C-5.51326172 2.03873047 -5.51326172 2.03873047 -6.73828125 2.26953125 C-9.26765365 3.08644427 -10.2517923 4.04851233 -12 6 C-14.1875 7.1875 -14.1875 7.1875 -16 8 C-12.94831547 0.23207575 -7.51197524 -1.25199587 0 0 Z " fill="#AB9E62" transform="translate(59,28)"/>
<path d="M0 0 C-0.66 1.32 -1.32 2.64 -2 4 C-2.66 4 -3.32 4 -4 4 C-4.33 4.66 -4.66 5.32 -5 6 C-5.66 4.35 -6.32 2.7 -7 1 C-2.25 0 -2.25 0 0 0 Z " fill="#B4A466" transform="translate(125,27)"/>
</svg>
